<svg width="20" height="20" viewBox="0 0 20 20" fill="none" xmlns="http://www.w3.org/2000/svg">
  <mask id="mask0_39_179" style="mask-type:alpha" maskUnits="userSpaceOnUse" x="0" y="0" width="20" height="20">
  <rect width="20" height="20" fill="#D9D9D9"/>
  </mask>
  <g mask="url(#mask0_39_179)">
  <path d="M7.83334 13.75L10 11.5833L12.1667 13.75L13.3333 12.5833L11.1667 10.4167L13.3333 8.25L12.1667 7.08333L10 9.25L7.83334 7.08333L6.66667 8.25L8.83334 10.4167L6.66667 12.5833L7.83334 13.75ZM5.83334 17.5C5.375 17.5 4.98264 17.3368 4.65625 17.0104C4.32986 16.684 4.16667 16.2917 4.16667 15.8333V5H3.33334V3.33333H7.5V2.5H12.5V3.33333H16.6667V5H15.8333V15.8333C15.8333 16.2917 15.6701 16.684 15.3438 17.0104C15.0174 17.3368 14.625 17.5 14.1667 17.5H5.83334ZM14.1667 5H5.83334V15.8333H14.1667V5Z" fill="#FF0000"/>
  </g>
</svg>
