<svg width="15" height="15" viewBox="0 0 15 15" fill="none" xmlns="http://www.w3.org/2000/svg">
<path d="M10.1275 2.85963L10.1837 2.89213C10.6701 3.17289 11.0756 3.407 11.3726 3.63616C11.686 3.87803 11.9347 4.15565 12.0389 4.54451C12.1431 4.93338 12.0665 5.29819 11.916 5.66437C11.8115 5.91854 11.6579 6.20415 11.4729 6.52995L11.0758 6.29394L11.0707 6.29094L6.74235 3.79199L6.33757 3.55342C6.52513 3.23399 6.69412 2.96116 6.86049 2.74556C7.10236 2.43214 7.37998 2.18337 7.76885 2.07917C8.15771 1.97498 8.52252 2.05161 8.8887 2.20211C9.23562 2.34469 9.64115 2.57884 10.1275 2.85963Z" fill="#AFAFAF"/>
<path d="M5.86793 4.36484L3.6942 8.12978C3.50808 8.45153 3.36092 8.70594 3.3064 8.99532C3.25188 9.2847 3.29637 9.57522 3.35264 9.94264L3.3678 10.042C3.47166 10.724 3.55728 11.2863 3.6864 11.7126C3.82145 12.1585 4.02904 12.5445 4.43734 12.7802C4.84563 13.0159 5.28367 13.0027 5.73735 12.8967C6.17114 12.7954 6.70085 12.5884 7.3435 12.3373L7.43709 12.3008C7.78342 12.1658 8.05726 12.0591 8.28061 11.8672C8.50396 11.6753 8.6507 11.4206 8.83629 11.0986L11.0049 7.34239L10.5993 7.10135L6.26814 4.60073L5.86793 4.36484Z" fill="#AFAFAF"/>
</svg>
